<svg width="114" height="118" viewBox="0 0 114 118" fill="none" xmlns="http://www.w3.org/2000/svg">
<path d="M97.159 65.1665H73.0635L65.0317 76.8665H48.9681L40.9363 65.1665H16.8408" stroke="#E4D5C9" stroke-width="4" stroke-linecap="round" stroke-linejoin="round"/>
<path d="M30.6957 38.2954L16.8408 65.1665V88.5666C16.8408 90.6353 17.687 92.6193 19.1933 94.0821C20.6995 95.5449 22.7425 96.3667 24.8726 96.3667H89.1272C91.2573 96.3667 93.3003 95.5449 94.8065 94.0821C96.3128 92.6193 97.159 90.6353 97.159 88.5666V65.1665L83.3041 38.2954C82.6392 36.9959 81.6141 35.9023 80.3442 35.1375C79.0743 34.3728 77.6099 33.9672 76.1156 33.9664H37.8842C36.3899 33.9672 34.9255 34.3728 33.6556 35.1375C32.3857 35.9023 31.3606 36.9959 30.6957 38.2954V38.2954Z" stroke="#E4D5C9" stroke-width="4" stroke-linecap="round" stroke-linejoin="round"/>
<path d="M57.0005 16.3889L57.0005 22.9805" stroke="#E4D5C9" stroke-width="4" stroke-linecap="round"/>
<path d="M71.2544 20.5094L66.4549 25.1703" stroke="#E4D5C9" stroke-width="4" stroke-linecap="round"/>
<path d="M42.7466 20.5094L47.546 25.1703" stroke="#E4D5C9" stroke-width="4" stroke-linecap="round"/>
</svg>
